<svg width="118" height="32" viewBox="0 0 118 32" fill="none" xmlns="http://www.w3.org/2000/svg">
<path d="M0.528412 31V1.90911H6.67898V25.929H19.1506V31H0.528412Z" fill="white"/>
<path d="M35.0533 31.4262C32.809 31.4262 30.8771 30.9716 29.2578 30.0625C27.648 29.144 26.4074 27.8466 25.5362 26.1705C24.665 24.4849 24.2294 22.4915 24.2294 20.1904C24.2294 17.946 24.665 15.9763 25.5362 14.2813C26.4074 12.5862 27.6338 11.2652 29.2152 10.3182C30.8061 9.37123 32.6716 8.89775 34.8118 8.89775C36.2512 8.89775 37.5912 9.12975 38.8317 9.59377C40.0817 10.0483 41.1707 10.7349 42.0987 11.6534C43.0362 12.572 43.7654 13.7273 44.2862 15.1193C44.8071 16.5019 45.0675 18.1212 45.0675 19.9773V21.6392H26.6442V17.8892H39.3715C39.3715 17.018 39.1821 16.2462 38.8033 15.5739C38.4245 14.9015 37.8989 14.376 37.2266 13.9972C36.5637 13.6089 35.7919 13.4148 34.9112 13.4148C33.9927 13.4148 33.1783 13.6279 32.468 14.054C31.7673 14.4707 31.218 15.0341 30.8203 15.7443C30.4226 16.4451 30.219 17.2263 30.2095 18.0881V21.6534C30.2095 22.733 30.4084 23.6657 30.8061 24.4517C31.2133 25.2377 31.7862 25.8438 32.5249 26.2699C33.2635 26.696 34.1394 26.9091 35.1527 26.9091C35.8251 26.9091 36.4406 26.8144 36.9993 26.625C37.558 26.4356 38.0362 26.1515 38.434 25.7727C38.8317 25.394 39.1347 24.9299 39.343 24.3807L44.9396 24.75C44.6555 26.0947 44.0732 27.269 43.1925 28.2727C42.3213 29.2671 41.1944 30.0436 39.8118 30.6023C38.4387 31.1515 36.8525 31.4262 35.0533 31.4262Z" fill="white"/>
<path d="M59.0561 31.3551C57.3989 31.3551 55.898 30.929 54.5533 30.0767C53.218 29.215 52.1574 27.9508 51.3715 26.2841C50.5949 24.608 50.2067 22.553 50.2067 20.1193C50.2067 17.6193 50.6091 15.5407 51.4141 13.8835C52.219 12.2169 53.2891 10.9716 54.6243 10.1477C55.969 9.31441 57.4415 8.89775 59.0419 8.89775C60.2635 8.89775 61.2815 9.10608 62.0959 9.52275C62.9197 9.92994 63.5826 10.4413 64.0845 11.0568C64.5959 11.6629 64.9841 12.2595 65.2493 12.8466H65.434V1.90911H71.4709V31H65.505V27.5057H65.2493C64.9652 28.1118 64.5627 28.7131 64.0419 29.3097C63.5305 29.8968 62.8629 30.3845 62.0391 30.7727C61.2247 31.161 60.2304 31.3551 59.0561 31.3551ZM60.9737 26.5398C61.9491 26.5398 62.773 26.2746 63.4453 25.7443C64.1271 25.2046 64.648 24.4517 65.0078 23.4858C65.3771 22.5199 65.5618 21.3883 65.5618 20.0909C65.5618 18.7936 65.3819 17.6667 65.022 16.7102C64.6622 15.7538 64.1413 15.0152 63.4595 14.4943C62.7777 13.9735 61.9491 13.7131 60.9737 13.7131C59.9794 13.7131 59.1413 13.983 58.4595 14.5227C57.7777 15.0625 57.2616 15.8106 56.9112 16.7671C56.5608 17.7235 56.3857 18.8315 56.3857 20.0909C56.3857 21.3599 56.5608 22.482 56.9112 23.4574C57.2711 24.4233 57.7872 25.1809 58.4595 25.7301C59.1413 26.2699 59.9794 26.5398 60.9737 26.5398Z" fill="white"/>
<path d="M88.304 31.4262C86.0975 31.4262 84.1894 30.9574 82.5795 30.0199C80.9792 29.0729 79.7434 27.7566 78.8722 26.071C78.0009 24.376 77.5653 22.411 77.5653 20.1762C77.5653 17.9224 78.0009 15.9527 78.8722 14.2671C79.7434 12.572 80.9792 11.2557 82.5795 10.3182C84.1894 9.37123 86.0975 8.89775 88.304 8.89775C90.5104 8.89775 92.4138 9.37123 94.0142 10.3182C95.6241 11.2557 96.8646 12.572 97.7358 14.2671C98.607 15.9527 99.0426 17.9224 99.0426 20.1762C99.0426 22.411 98.607 24.376 97.7358 26.071C96.8646 27.7566 95.6241 29.0729 94.0142 30.0199C92.4138 30.9574 90.5104 31.4262 88.304 31.4262ZM88.3324 26.7387C89.3362 26.7387 90.1742 26.4546 90.8466 25.8864C91.5189 25.3087 92.0256 24.5227 92.3665 23.5284C92.7169 22.5341 92.892 21.4025 92.892 20.1335C92.892 18.8646 92.7169 17.733 92.3665 16.7387C92.0256 15.7443 91.5189 14.9584 90.8466 14.3807C90.1742 13.803 89.3362 13.5142 88.3324 13.5142C87.3191 13.5142 86.4669 13.803 85.7756 14.3807C85.0937 14.9584 84.5777 15.7443 84.2273 16.7387C83.8864 17.733 83.7159 18.8646 83.7159 20.1335C83.7159 21.4025 83.8864 22.5341 84.2273 23.5284C84.5777 24.5227 85.0937 25.3087 85.7756 25.8864C86.4669 26.4546 87.3191 26.7387 88.3324 26.7387Z" fill="white"/>
<path d="M116.71 9.18184V13.7273H103.244V9.18184H116.71ZM106.327 31V7.60513C106.327 6.02369 106.634 4.71214 107.25 3.67047C107.875 2.6288 108.727 1.84755 109.807 1.32672C110.886 0.805888 112.113 0.545471 113.486 0.545471C114.414 0.545471 115.261 0.616494 116.028 0.758541C116.805 0.900586 117.383 1.02843 117.761 1.14206L116.682 5.68752C116.445 5.61176 116.152 5.54074 115.801 5.47445C115.46 5.40816 115.11 5.37502 114.75 5.37502C113.86 5.37502 113.24 5.58335 112.889 6.00002C112.539 6.40722 112.364 6.98013 112.364 7.71877V31H106.327Z" fill="white"/>
</svg>
