<svg width="35" height="35" viewBox="0 0 35 35"  xmlns="http://www.w3.org/2000/svg">
<g fill="current" stroke="current"><path fill-rule="evenodd" clip-rule="evenodd" d="M17.5 5.375C14.8306 5.375 12.6667 7.53896 12.6667 10.2083C12.6667 12.8777 14.8306 15.0417 17.5 15.0417C20.1694 15.0417 22.3333 12.8777 22.3333 10.2083C22.3333 7.53896 20.1694 5.375 17.5 5.375ZM10.6667 10.2083C10.6667 6.43439 13.7261 3.375 17.5 3.375C21.274 3.375 24.3333 6.43439 24.3333 10.2083C24.3333 13.9823 21.274 17.0417 17.5 17.0417C13.7261 17.0417 10.6667 13.9823 10.6667 10.2083Z" />
<path fill-rule="evenodd" clip-rule="evenodd" d="M7.4207 24.3557C8.49604 21.1315 11.6561 19.4167 14.8509 19.4167H20.1491C23.3439 19.4167 26.5039 21.1315 27.5793 24.3557C28.0863 25.876 28.5389 27.6841 28.6701 29.5558C28.7525 30.7306 27.7938 31.625 26.7083 31.625H8.29166C7.20614 31.625 6.24749 30.7306 6.32985 29.5558C6.46107 27.6841 6.91366 25.876 7.4207 24.3557ZM14.8509 21.4167C12.304 21.4167 10.0592 22.766 9.31796 24.9885C8.8517 26.3865 8.45236 27.9963 8.33008 29.625H26.6699C26.5476 27.9963 26.1483 26.3865 25.682 24.9885C24.9408 22.766 22.696 21.4167 20.1491 21.4167H14.8509Z" />
</g></svg>
