<svg width="35" height="35" viewBox="0 0 35 35" fill="none" xmlns="http://www.w3.org/2000/svg">
<g fill="current" stroke="current">
<path fill-rule="evenodd" clip-rule="evenodd" d="M17.5 15.5C19.6171 15.5 21.3333 13.7838 21.3333 11.6667C21.3333 9.54959 19.6171 7.83334 17.5 7.83334C15.3829 7.83334 13.6667 9.54959 13.6667 11.6667C13.6667 13.7838 15.3829 15.5 17.5 15.5ZM17.5 17.5C20.7217 17.5 23.3333 14.8883 23.3333 11.6667C23.3333 8.44502 20.7217 5.83334 17.5 5.83334C14.2783 5.83334 11.6667 8.44502 11.6667 11.6667C11.6667 14.8883 14.2783 17.5 17.5 17.5Z" />
<path fill-rule="evenodd" clip-rule="evenodd" d="M26.25 13.201C25.9055 13.0021 25.496 12.9482 25.1118 13.0511C24.7275 13.1541 24.3999 13.4055 24.201 13.75C24.0021 14.0945 23.9482 14.504 24.0511 14.8882C24.1541 15.2725 24.4055 15.6001 24.75 15.799C25.0945 15.9979 25.504 16.0518 25.8882 15.9489C26.2725 15.8459 26.6001 15.5945 26.799 15.25C26.9979 14.9055 27.0518 14.496 26.9489 14.1118C26.8459 13.7275 26.5945 13.3999 26.25 13.201ZM24.5941 11.1193C25.4908 10.879 26.4461 11.0048 27.25 11.4689C28.0539 11.933 28.6405 12.6975 28.8807 13.5941C29.121 14.4908 28.9952 15.4461 28.5311 16.25C28.067 17.0539 27.3025 17.6405 26.4059 17.8807C25.5092 18.121 24.5539 17.9952 23.75 17.5311C22.9461 17.067 22.3595 16.3025 22.1193 15.4059C21.879 14.5092 22.0048 13.5539 22.4689 12.75C22.933 11.9461 23.6975 11.3595 24.5941 11.1193Z" />
<path fill-rule="evenodd" clip-rule="evenodd" d="M10.25 13.201C9.90547 13.0021 9.49604 12.9482 9.11177 13.0511C8.7275 13.1541 8.39988 13.4055 8.20097 13.75C8.00205 14.0945 7.94815 14.504 8.05111 14.8882C8.15408 15.2725 8.40548 15.6001 8.75 15.799C9.09453 15.9979 9.50396 16.0518 9.88823 15.9489C10.2725 15.8459 10.6001 15.5945 10.799 15.25C10.9979 14.9055 11.0518 14.496 10.9489 14.1118C10.8459 13.7275 10.5945 13.3999 10.25 13.201ZM8.59414 11.1193C9.49076 10.879 10.4461 11.0048 11.25 11.4689C12.0539 11.933 12.6405 12.6975 12.8807 13.5941C13.121 14.4908 12.9952 15.4461 12.5311 16.25C12.067 17.0539 11.3025 17.6405 10.4059 17.8807C9.50924 18.121 8.5539 17.9952 7.75 17.5311C6.94611 17.067 6.35952 16.3025 6.11927 15.4059C5.87902 14.5092 6.00479 13.5539 6.46892 12.75C6.93305 11.9461 7.69751 11.3595 8.59414 11.1193Z" />
<path fill-rule="evenodd" clip-rule="evenodd" d="M23.3638 21.625C24.4867 22.7588 25.0846 24.1274 25.4046 25.25H29.3631C29.1257 24.5026 28.7149 23.5705 28.0363 22.8163C27.329 22.0302 26.3172 21.4167 24.7917 21.4167C24.2518 21.4167 23.7793 21.4933 23.3638 21.625ZM20.9505 20.6565C21.932 19.911 23.199 19.4167 24.7917 19.4167C26.9501 19.4167 28.4827 20.3224 29.523 21.4785C30.5368 22.6052 31.067 23.9466 31.3366 24.8646C31.7216 26.1758 30.6602 27.25 29.4922 27.25H23.8004L23.6387 26.4474C23.3746 25.1362 22.7006 23.3428 21.0272 22.302L19.7939 21.535L20.9505 20.6565Z" />
<path fill-rule="evenodd" clip-rule="evenodd" d="M5.63685 25.25H9.59533C9.9154 24.1274 10.5132 22.7588 11.6362 21.6249C11.2207 21.4933 10.7482 21.4167 10.2083 21.4167C8.6828 21.4167 7.67107 22.0302 6.96374 22.8163C6.28508 23.5705 5.87434 24.5026 5.63685 25.25ZM5.47703 21.4785C6.51729 20.3224 8.04997 19.4167 10.2083 19.4167C11.801 19.4167 13.068 19.911 14.0495 20.6565L15.2061 21.535L13.9728 22.302C12.2993 23.3427 11.6253 25.1361 11.3612 26.4474L11.1996 27.25H5.50778C4.33978 27.25 3.27837 26.1758 3.66342 24.8646C3.93301 23.9466 4.46319 22.6052 5.47703 21.4785Z" />
<path fill-rule="evenodd" clip-rule="evenodd" d="M11.3129 26.7083H23.6871C23.5327 25.7984 23.164 24.5113 22.3086 23.4439C21.4394 22.3594 20.0034 21.4167 17.5 21.4167C14.9966 21.4167 13.5606 22.3594 12.6914 23.4439C11.836 24.5113 11.4673 25.7984 11.3129 26.7083ZM11.1308 22.1931C12.3863 20.6265 14.4006 19.4167 17.5 19.4167C20.5994 19.4167 22.6137 20.6265 23.8692 22.1931C25.0881 23.714 25.5271 25.487 25.6899 26.567C25.8761 27.8025 24.8669 28.7083 23.7917 28.7083H11.2083C10.1331 28.7083 9.12389 27.8025 9.3101 26.567C9.47287 25.487 9.91194 23.714 11.1308 22.1931Z" />
</g></svg>
