<svg width="45" height="41" viewBox="0 0 45 41" fill="none" xmlns="http://www.w3.org/2000/svg">
<path d="M30.9375 6.4375H36.5625C38.1182 6.4375 39.375 7.69434 39.375 9.25V31.75C39.375 33.3057 38.1182 34.5625 36.5625 34.5625H30.9375C29.3818 34.5625 28.125 35.8193 28.125 37.375C28.125 38.9307 29.3818 40.1875 30.9375 40.1875H36.5625C41.2207 40.1875 45 36.4082 45 31.75V9.25C45 4.5918 41.2207 0.8125 36.5625 0.8125H30.9375C29.3818 0.8125 28.125 2.06934 28.125 3.625C28.125 5.18066 29.3818 6.4375 30.9375 6.4375ZM30.2783 22.0293C30.7002 21.6338 30.9375 21.0801 30.9375 20.5C30.9375 19.9199 30.7002 19.3662 30.2783 18.9707L17.6221 7.01758C17.0068 6.4375 16.1104 6.2793 15.3369 6.61328C14.5635 6.94727 14.0625 7.71191 14.0625 8.54688V14.875H2.8125C1.25684 14.875 0 16.1318 0 17.6875V23.3125C0 24.8682 1.25684 26.125 2.8125 26.125H14.0625V32.4531C14.0625 33.2969 14.5635 34.0527 15.3369 34.3867C16.1104 34.7207 17.0068 34.5625 17.6221 33.9824L30.2783 22.0293Z" fill="white"/>
</svg>
