<svg width="40" height="36" viewBox="0 0 40 36" fill="none" xmlns="http://www.w3.org/2000/svg">
<path d="M12.375 5.41431C13.744 5.41431 14.85 4.29393 14.85 2.90717C14.85 1.5204 13.744 0.400024 12.375 0.400024H7.425C3.32578 0.400024 0 3.769 0 7.92145V27.9786C0 32.1311 3.32578 35.5 7.425 35.5H12.375C13.744 35.5 14.85 34.3796 14.85 32.9929C14.85 31.6061 13.744 30.4857 12.375 30.4857H7.425C6.05602 30.4857 4.95 29.3654 4.95 27.9786V7.92145C4.95 6.53469 6.05602 5.41431 7.425 5.41431H12.375ZM39.0199 19.3133C39.3912 18.9607 39.6 18.4671 39.6 17.95C39.6 17.4329 39.3912 16.9393 39.0199 16.5868L27.8824 5.93141C27.341 5.41431 26.5521 5.27328 25.8715 5.57101C25.1909 5.86873 24.75 6.55036 24.75 7.29467V12.9357H14.85C13.481 12.9357 12.375 14.0561 12.375 15.4429V20.4572C12.375 21.8439 13.481 22.9643 14.85 22.9643H24.75V28.6054C24.75 29.3575 25.1909 30.0313 25.8715 30.329C26.5521 30.6268 27.341 30.4857 27.8824 29.9686L39.0199 19.3133Z" fill="white"/>
</svg>
