<svg width="55" height="55" viewBox="0 0 55 55" fill="none" xmlns="http://www.w3.org/2000/svg">
<path d="M55 27.5C55 12.3122 42.6878 0 27.5 0V0C12.3122 0 0 12.3122 0 27.5V27.5C0 42.6878 12.3122 55 27.5 55V55C42.6878 55 55 42.6878 55 27.5V27.5Z" fill="#231E1B"/>
<path fill-rule="evenodd" clip-rule="evenodd" d="M27.4579 14.08C19.8891 14.08 13.75 20.2191 13.75 27.788C13.75 33.843 17.7026 38.973 23.0849 40.8231C23.7576 40.9072 24.0099 40.4867 24.0099 40.1503C24.0099 39.8139 24.0099 38.973 24.0099 37.7956C20.2255 38.6366 19.3846 35.9454 19.3846 35.9454C18.7959 34.3476 17.8708 33.9271 17.8708 33.9271C16.6093 33.0861 17.9549 33.0861 17.9549 33.0861C19.3005 33.1702 20.0573 34.5158 20.0573 34.5158C21.3188 36.6182 23.2531 36.0295 24.0099 35.6932C24.094 34.7681 24.5145 34.1794 24.8509 33.843C21.8234 33.5066 18.6277 32.3292 18.6277 27.0311C18.6277 25.5173 19.1323 24.3399 20.0573 23.3308C19.9732 23.0785 19.4687 21.6488 20.2255 19.7987C20.2255 19.7987 21.4029 19.4623 24.0099 21.2283C25.1032 20.8919 26.2806 20.8078 27.4579 20.8078C28.6353 20.8078 29.8127 20.976 30.906 21.2283C33.513 19.4623 34.6904 19.7987 34.6904 19.7987C35.4472 21.6488 34.9427 23.0785 34.8586 23.4149C35.6995 24.3399 36.2882 25.6014 36.2882 27.1152C36.2882 32.4133 33.0925 33.5066 30.065 33.843C30.5696 34.2635 30.9901 35.1045 30.9901 36.3659C30.9901 38.2161 30.9901 39.6458 30.9901 40.1503C30.9901 40.4867 31.2424 40.9072 31.9151 40.8231C37.3815 38.973 41.25 33.843 41.25 27.788C41.1659 20.2191 35.0268 14.08 27.4579 14.08Z" fill="white"/>
</svg>
