<svg width="55" height="55" viewBox="0 0 55 55" fill="none" xmlns="http://www.w3.org/2000/svg">
<rect width="55" height="55" rx="27.5" fill="url(#paint0_radial_3_496)"/>
<path d="M27.5 16.2349C31.1446 16.2349 31.6416 16.2349 33.1325 16.2349C34.4578 16.2349 35.1205 16.5663 35.6175 16.7319C36.2801 17.0633 36.7771 17.2289 37.2741 17.7259C37.7711 18.2229 38.1024 18.7199 38.2681 19.3825C38.4337 19.8795 38.5994 20.5422 38.7651 21.8675C38.7651 23.3584 38.7651 23.6898 38.7651 27.5C38.7651 31.3102 38.7651 31.6416 38.7651 33.1325C38.7651 34.4578 38.4337 35.1205 38.2681 35.6175C37.9368 36.2801 37.7711 36.7771 37.2741 37.2741C36.7771 37.7711 36.2801 38.1024 35.6175 38.2681C35.1205 38.4337 34.4578 38.5994 33.1325 38.7651C31.6416 38.7651 31.3102 38.7651 27.5 38.7651C23.6898 38.7651 23.3584 38.7651 21.8675 38.7651C20.5422 38.7651 19.8795 38.4337 19.3825 38.2681C18.7199 37.9368 18.2229 37.7711 17.7259 37.2741C17.2289 36.7771 16.8976 36.2801 16.7319 35.6175C16.5663 35.1205 16.4006 34.4578 16.2349 33.1325C16.2349 31.6416 16.2349 31.3102 16.2349 27.5C16.2349 23.6898 16.2349 23.3584 16.2349 21.8675C16.2349 20.5422 16.5663 19.8795 16.7319 19.3825C17.0633 18.7199 17.2289 18.2229 17.7259 17.7259C18.2229 17.2289 18.7199 16.8976 19.3825 16.7319C19.8795 16.5663 20.5422 16.4006 21.8675 16.2349C23.3584 16.2349 23.8554 16.2349 27.5 16.2349ZM27.5 13.75C23.6898 13.75 23.3584 13.75 21.8675 13.75C20.3765 13.75 19.3825 14.0813 18.5542 14.4127C17.7259 14.744 16.8976 15.241 16.0693 16.0693C15.241 16.8976 14.9096 17.5602 14.4127 18.5542C14.0813 19.3825 13.9157 20.3765 13.75 21.8675C13.75 23.3584 13.75 23.8554 13.75 27.5C13.75 31.3102 13.75 31.6416 13.75 33.1325C13.75 34.6235 14.0813 35.6175 14.4127 36.4458C14.744 37.2741 15.241 38.1024 16.0693 38.9307C16.8976 39.759 17.5602 40.0904 18.5542 40.5874C19.3825 40.9187 20.3765 41.0843 21.8675 41.25C23.3584 41.25 23.8554 41.25 27.5 41.25C31.1446 41.25 31.6416 41.25 33.1325 41.25C34.6235 41.25 35.6175 40.9187 36.4458 40.5874C37.2741 40.256 38.1024 39.759 38.9307 38.9307C39.759 38.1024 40.0904 37.4398 40.5874 36.4458C40.9187 35.6175 41.0843 34.6235 41.25 33.1325C41.25 31.6416 41.25 31.1446 41.25 27.5C41.25 23.8554 41.25 23.3584 41.25 21.8675C41.25 20.3765 40.9187 19.3825 40.5874 18.5542C40.256 17.7259 39.759 16.8976 38.9307 16.0693C38.1024 15.241 37.4398 14.9096 36.4458 14.4127C35.6175 14.0813 34.6235 13.9157 33.1325 13.75C31.6416 13.75 31.3102 13.75 27.5 13.75Z" fill="white"/>
<path d="M27.5 20.3765C23.5241 20.3765 20.3765 23.5241 20.3765 27.5C20.3765 31.4759 23.5241 34.6235 27.5 34.6235C31.4759 34.6235 34.6235 31.4759 34.6235 27.5C34.6235 23.5241 31.4759 20.3765 27.5 20.3765ZM27.5 32.1386C25.0151 32.1386 22.8614 30.1506 22.8614 27.5C22.8614 25.0151 24.8494 22.8614 27.5 22.8614C29.9849 22.8614 32.1386 24.8494 32.1386 27.5C32.1386 29.9849 29.9849 32.1386 27.5 32.1386Z" fill="white"/>
<path d="M34.7892 21.8675C35.7041 21.8675 36.4458 21.1258 36.4458 20.2108C36.4458 19.2959 35.7041 18.5542 34.7892 18.5542C33.8742 18.5542 33.1325 19.2959 33.1325 20.2108C33.1325 21.1258 33.8742 21.8675 34.7892 21.8675Z" fill="white"/>
<defs>
<radialGradient id="paint0_radial_3_496" cx="0" cy="0" r="1" gradientUnits="userSpaceOnUse" gradientTransform="translate(56.1064 1.11719) scale(127.011)">
<stop stop-color="#F9ED32"/>
<stop offset="0.36" stop-color="#EE2A7B"/>
<stop offset="0.44" stop-color="#D22A8A"/>
<stop offset="0.6" stop-color="#8B2AB2"/>
<stop offset="0.83" stop-color="#1B2AF0"/>
<stop offset="0.88" stop-color="#002AFF"/>
</radialGradient>
</defs>
</svg>
