<svg width="39" height="39" viewBox="0 0 39 39" fill="none" xmlns="http://www.w3.org/2000/svg">
<path d="M35.9227 1.65292C34.2545 -0.0152466 31.558 -0.0152466 29.8898 1.65292L27.5971 3.93807L35.0543 11.3953L37.3471 9.10253C39.0152 7.43436 39.0152 4.73788 37.3471 3.06971L35.9227 1.65292ZM13.132 18.4107C12.6674 18.8754 12.3094 19.4467 12.1037 20.0789L9.84902 26.843C9.62813 27.498 9.80332 28.2217 10.2908 28.7168C10.7783 29.2119 11.502 29.3795 12.1646 29.1586L18.9287 26.9039C19.5533 26.6906 20.1246 26.3402 20.5969 25.8756L33.3404 13.1244L25.8756 5.65956L13.132 18.4107ZM7.3125 4.87499C3.27539 4.87499 0 8.15038 0 12.1875V31.6875C0 35.7246 3.27539 39 7.3125 39H26.8125C30.8496 39 34.125 35.7246 34.125 31.6875V24.375C34.125 23.0267 33.0357 21.9375 31.6875 21.9375C30.3393 21.9375 29.25 23.0267 29.25 24.375V31.6875C29.25 33.0357 28.1607 34.125 26.8125 34.125H7.3125C5.96426 34.125 4.875 33.0357 4.875 31.6875V12.1875C4.875 10.8392 5.96426 9.74999 7.3125 9.74999H14.625C15.9732 9.74999 17.0625 8.66073 17.0625 7.31249C17.0625 5.96425 15.9732 4.87499 14.625 4.87499H7.3125Z" fill="black"/>
</svg>
