<svg width="55" height="55" viewBox="0 0 55 55" fill="none" xmlns="http://www.w3.org/2000/svg">
<path d="M55 27.5C55 12.3122 42.6878 0 27.5 0V0C12.3122 0 0 12.3122 0 27.5V27.5C0 42.6878 12.3122 55 27.5 55V55C42.6878 55 55 42.6878 55 27.5V27.5Z" fill="white"/>
<path d="M10.75 23.5V34H19.66V31.9H12.85V23.5H10.75ZM22.8109 34V23.5H20.7109V34H22.8109ZM33.7345 34V23.5H31.6495V30.49L26.4145 23.5H24.3145V34H26.4145V26.995L31.6495 34H33.7345ZM37.3275 34V29.815H40.4625L42.5625 31.9V34H44.6475V30.865L42.5625 28.765L44.6475 26.665V23.5H42.5625V25.615L40.4625 27.715H37.3275V23.5H35.2275V34H37.3275Z" fill="black"/>
</svg>
