<svg width="35" height="35" viewBox="0 0 35 35" fill="none" xmlns="http://www.w3.org/2000/svg">
<g fill="current" stroke="current">
<path d="M20.5968 4.71766H20.0968V4.7426L20.0993 4.76742L20.5968 4.71766ZM20.5968 4.71765H21.0968V4.69271L21.0943 4.66789L20.5968 4.71765ZM20.6532 5.282L20.1557 5.33175V5.33176L20.6532 5.282ZM23.9098 6.63091L24.2264 7.01789L24.2264 7.01789L23.9098 6.63091ZM24.3487 6.27179L24.0321 5.88481L24.0321 5.88481L24.3487 6.27179ZM27.0294 6.40549L26.6758 6.75904V6.75904L27.0294 6.40549ZM28.5945 7.97059L28.948 7.61703L28.5945 7.97059ZM28.5945 7.9706L28.948 7.61705V7.61704L28.5945 7.9706ZM29.526 9.2678L30.0254 9.2429L29.526 9.2678ZM28.7282 10.6513L29.1151 10.9679L28.7282 10.6513ZM28.369 11.0902L27.982 10.7736V10.7736L28.369 11.0902ZM29.7179 14.3468L29.6682 14.8443L29.7179 14.3468ZM30.2823 14.4032L30.3321 13.9057L30.2823 14.4032ZM31.8248 14.8173L32.1955 14.4818L32.1955 14.4818L31.8248 14.8173ZM31.8248 20.1827L32.1955 20.5182H32.1955L31.8248 20.1827ZM30.2824 20.5968V21.0968H30.3073L30.3321 21.0943L30.2824 20.5968ZM30.2823 20.5968V20.0968H30.2574L30.2326 20.0993L30.2823 20.5968ZM29.7185 20.6532L29.6687 20.1556H29.6687L29.7185 20.6532ZM28.3696 23.9097L28.7565 23.5931L28.3696 23.9097ZM28.7282 24.3481L28.3413 24.6647V24.6647L28.7282 24.3481ZM28.5945 27.0288L28.9481 27.3823L28.5945 27.0288ZM27.0294 28.5939L26.6759 28.2403L27.0294 28.5939ZM25.7322 29.5254L25.7571 30.0248H25.7571L25.7322 29.5254ZM24.3487 28.7276L24.0321 29.1146H24.0321L24.3487 28.7276ZM23.9098 28.3685L24.2264 27.9815L23.9098 28.3685ZM21.4511 27.0381L21.2598 26.5761L21.2598 26.5761L21.4511 27.0381ZM20.6533 29.7174L20.1557 29.6676L20.6533 29.7174ZM20.5968 30.2823L20.0993 30.2326L20.0968 30.2574V30.2823H20.5968ZM20.5968 30.2824L21.0943 30.3321L21.0968 30.3073V30.2824H20.5968ZM20.1827 31.8248L20.5182 32.1955V32.1955L20.1827 31.8248ZM14.8173 31.8248L14.4818 32.1955L14.4818 32.1955L14.8173 31.8248ZM14.4032 30.2823L14.9008 30.2326L14.4032 30.2823ZM14.3468 29.7179L13.8493 29.7677L14.3468 29.7179ZM11.0902 28.369L11.4069 28.756L11.0902 28.369ZM10.6512 28.7282L10.9678 29.1152L10.6512 28.7282ZM9.26774 29.5261L9.24283 30.0255L9.24283 30.0255L9.26774 29.5261ZM7.97052 28.5945L7.61697 28.9481L7.97052 28.5945ZM6.40542 27.0294L6.75898 26.6759H6.75898L6.40542 27.0294ZM6.27172 24.3487L6.6587 24.6654L6.6587 24.6654L6.27172 24.3487ZM6.6309 23.9097L6.24392 23.5931L6.24392 23.5931L6.6309 23.9097ZM5.28199 20.6532L5.33174 20.1557H5.33174L5.28199 20.6532ZM4.71766 20.5968L4.76741 20.0993L4.7426 20.0968H4.71766V20.5968ZM4.71764 20.5968L4.66789 21.0943L4.6927 21.0968H4.71764V20.5968ZM3.17522 20.1827L3.54595 19.8472H3.54595L3.17522 20.1827ZM3.17522 14.8173L2.80449 14.4818H2.80449L3.17522 14.8173ZM4.71766 14.4032L4.76742 14.9008H4.76742L4.71766 14.4032ZM5.28254 14.3467L5.23279 13.8492H5.23279L5.28254 14.3467ZM7.96183 13.5489L8.42377 13.7402L7.96183 13.5489ZM6.63145 11.0902L7.01842 10.7736L6.63145 11.0902ZM6.27179 10.6506L5.88481 10.9672L6.27179 10.6506ZM6.40549 7.96993L6.75904 8.32348H6.75904L6.40549 7.96993ZM7.97059 6.40483L7.61703 6.05128V6.05128L7.97059 6.40483ZM9.2678 5.47325L9.29271 5.97263H9.29271L9.2678 5.47325ZM10.6513 6.27113L10.3347 6.65811L10.3347 6.65811L10.6513 6.27113ZM11.0903 6.63034L11.4069 6.24336V6.24336L11.0903 6.63034ZM14.3469 5.28143L13.8493 5.23168V5.23168L14.3469 5.28143ZM14.4032 4.71766L14.9008 4.76741V4.76741L14.4032 4.71766ZM14.8173 3.17522L14.4818 2.80449V2.80449L14.8173 3.17522ZM20.1827 3.17522L19.8472 3.54595V3.54595L20.1827 3.17522ZM21.0968 4.71766V4.71765H20.0968V4.71766H21.0968ZM21.1507 5.23225L21.0943 4.66791L20.0993 4.76742L20.1557 5.33175L21.1507 5.23225ZM21.6424 7.49935C21.5911 7.47812 21.4895 7.41821 21.391 7.02637C21.2922 6.63382 21.2341 6.06592 21.1507 5.23225L20.1557 5.33176C20.2357 6.13162 20.3001 6.78887 20.4212 7.27034C20.5425 7.75252 20.7582 8.21548 21.2597 8.42323L21.6424 7.49935ZM23.5931 6.24393C22.9447 6.77448 22.502 7.13494 22.1546 7.34268C21.8078 7.55005 21.6936 7.52059 21.6424 7.49935L21.2597 8.42323C21.7613 8.63098 22.2411 8.45611 22.6678 8.20094C23.0939 7.94614 23.6042 7.52692 24.2264 7.01789L23.5931 6.24393ZM24.0321 5.88481L23.5931 6.24393L24.2264 7.01789L24.6653 6.65877L24.0321 5.88481ZM25.7571 4.97454C25.4235 4.9579 25.1415 5.07478 24.8812 5.23711C24.633 5.39189 24.3546 5.62092 24.0321 5.88481L24.6653 6.65877C25.0085 6.37795 25.2295 6.19844 25.4103 6.08566C25.5791 5.98044 25.656 5.97074 25.7072 5.97329L25.7571 4.97454ZM27.3829 6.05194C27.0882 5.75726 26.834 5.50167 26.6024 5.32296C26.3596 5.13553 26.0906 4.99117 25.7571 4.97454L25.7072 5.97329C25.7585 5.97585 25.8341 5.99315 25.9915 6.11465C26.1603 6.24487 26.3622 6.44546 26.6758 6.75904L27.3829 6.05194ZM28.948 7.61703L27.3829 6.05194L26.6758 6.75904L28.2409 8.32414L28.948 7.61703ZM28.948 7.61704L28.948 7.61703L28.2409 8.32414L28.2409 8.32415L28.948 7.61704ZM30.0254 9.2429C30.0088 8.90931 29.8644 8.64041 29.677 8.39752C29.4983 8.16594 29.2427 7.91172 28.948 7.61705L28.2409 8.32415C28.5545 8.63773 28.7551 8.83969 28.8853 9.00844C29.0068 9.16589 29.0241 9.24146 29.0267 9.29271L30.0254 9.2429ZM29.1151 10.9679C29.379 10.6454 29.6081 10.367 29.7628 10.1188C29.9252 9.85842 30.0421 9.57649 30.0254 9.2429L29.0267 9.29271C29.0292 9.34396 29.0195 9.42088 28.9143 9.58964C28.8015 9.77051 28.622 9.99143 28.3412 10.3347L29.1151 10.9679ZM28.756 11.4069L29.1151 10.9679L28.3412 10.3347L27.982 10.7736L28.756 11.4069ZM27.5006 13.3576C27.4793 13.3063 27.4499 13.1922 27.6572 12.8454C27.865 12.498 28.2254 12.0553 28.756 11.4069L27.982 10.7736C27.473 11.3958 27.0538 11.9061 26.799 12.3322C26.5438 12.7589 26.3689 13.2387 26.5767 13.7403L27.5006 13.3576ZM29.7677 13.8493C28.934 13.7659 28.3661 13.7078 27.9736 13.609C27.5817 13.5105 27.5218 13.4089 27.5006 13.3576L26.5767 13.7403C26.7844 14.2418 27.2474 14.4575 27.7296 14.5788C28.2111 14.6999 28.8683 14.7643 29.6682 14.8443L29.7677 13.8493ZM30.3321 13.9057L29.7677 13.8493L29.6682 14.8443L30.2326 14.9008L30.3321 13.9057ZM32.1955 14.4818C31.9714 14.2342 31.6894 14.1175 31.3905 14.0482C31.1056 13.9821 30.7468 13.9472 30.3321 13.9057L30.2326 14.9008C30.6739 14.9449 30.957 14.9742 31.1646 15.0223C31.3584 15.0672 31.4196 15.1148 31.4541 15.1528L32.1955 14.4818ZM32.5833 16.3933C32.5833 15.9766 32.5843 15.6161 32.5469 15.326C32.5077 15.0217 32.4196 14.7295 32.1955 14.4818L31.4541 15.1528C31.4885 15.1909 31.5297 15.2565 31.5551 15.4538C31.5824 15.6652 31.5833 15.9498 31.5833 16.3933H32.5833ZM32.5833 18.6067V16.3933H31.5833V18.6067H32.5833ZM32.1955 20.5182C32.4196 20.2705 32.5077 19.9783 32.5469 19.674C32.5843 19.3839 32.5833 19.0234 32.5833 18.6067H31.5833C31.5833 19.0502 31.5824 19.3348 31.5551 19.5462C31.5297 19.7435 31.4885 19.8091 31.4541 19.8472L32.1955 20.5182ZM30.3321 21.0943C30.7468 21.0528 31.1056 21.0179 31.3905 20.9518C31.6894 20.8825 31.9714 20.7658 32.1955 20.5182L31.4541 19.8472C31.4196 19.8852 31.3584 19.9328 31.1647 19.9777C30.957 20.0258 30.6739 20.0551 30.2326 20.0993L30.3321 21.0943ZM30.2823 21.0968H30.2824V20.0968H30.2823V21.0968ZM29.7682 21.1507L30.3321 21.0943L30.2326 20.0993L29.6687 20.1556L29.7682 21.1507ZM27.5011 21.6423C27.5224 21.5911 27.5823 21.4895 27.9741 21.3909C28.3666 21.2922 28.9345 21.234 29.7682 21.1507L29.6687 20.1556C28.8688 20.2356 28.2116 20.3 27.7301 20.4211C27.248 20.5424 26.785 20.7581 26.5772 21.2597L27.5011 21.6423ZM28.7565 23.5931C28.226 22.9446 27.8655 22.502 27.6578 22.1546C27.4504 21.8078 27.4799 21.6936 27.5011 21.6423L26.5772 21.2597C26.3695 21.7612 26.5444 22.2411 26.7995 22.6678C27.0543 23.0939 27.4736 23.6042 27.9826 24.2263L28.7565 23.5931ZM29.1152 24.0315L28.7565 23.5931L27.9826 24.2263L28.3413 24.6647L29.1152 24.0315ZM30.0255 25.7565C30.0421 25.4229 29.9252 25.1409 29.7629 24.8806C29.6081 24.6324 29.3791 24.354 29.1152 24.0315L28.3413 24.6647C28.6221 25.0079 28.8016 25.2289 28.9144 25.4097C29.0196 25.5785 29.0293 25.6554 29.0267 25.7067L30.0255 25.7565ZM28.9481 27.3823C29.2428 27.0877 29.4984 26.8334 29.6771 26.6018C29.8645 26.359 30.0089 26.0901 30.0255 25.7565L29.0267 25.7067C29.0242 25.7579 29.0069 25.8335 28.8854 25.9909C28.7552 26.1597 28.5546 26.3616 28.241 26.6752L28.9481 27.3823ZM27.383 28.9474L28.9481 27.3823L28.241 26.6752L26.6759 28.2403L27.383 28.9474ZM25.7571 30.0248C26.0907 30.0082 26.3596 29.8638 26.6025 29.6764C26.8341 29.4977 27.0883 29.2421 27.383 28.9474L26.6759 28.2403C26.3623 28.5539 26.1603 28.7545 25.9916 28.8847C25.8341 29.0062 25.7586 29.0235 25.7073 29.0261L25.7571 30.0248ZM24.0321 29.1146C24.3547 29.3784 24.6331 29.6075 24.8813 29.7623C25.1416 29.9246 25.4235 30.0415 25.7571 30.0248L25.7073 29.0261C25.6561 29.0286 25.5791 29.0189 25.4104 28.9137C25.2295 28.8009 25.0086 28.6214 24.6654 28.3406L24.0321 29.1146ZM23.5932 28.7554L24.0321 29.1146L24.6654 28.3406L24.2264 27.9815L23.5932 28.7554ZM21.6425 27.5C21.6937 27.4788 21.8079 27.4493 22.1547 27.6567C22.5021 27.8644 22.9448 28.2249 23.5932 28.7554L24.2264 27.9815C23.6043 27.4724 23.094 27.0532 22.6679 26.7984C22.2412 26.5432 21.7613 26.3684 21.2598 26.5761L21.6425 27.5ZM21.1508 29.7671C21.2342 28.9334 21.2923 28.3655 21.391 27.973C21.4896 27.5812 21.5912 27.5212 21.6425 27.5L21.2598 26.5761C20.7582 26.7839 20.5426 27.2468 20.4213 27.729C20.3001 28.2105 20.2357 28.8677 20.1557 29.6676L21.1508 29.7671ZM21.0943 30.3321L21.1508 29.7671L20.1557 29.6676L20.0993 30.2326L21.0943 30.3321ZM21.0968 30.2824V30.2823H20.0968V30.2824H21.0968ZM20.5182 32.1955C20.7658 31.9714 20.8825 31.6894 20.9518 31.3905C21.0179 31.1056 21.0528 30.7468 21.0943 30.3321L20.0993 30.2326C20.0551 30.6739 20.0258 30.957 19.9777 31.1646C19.9328 31.3584 19.8852 31.4196 19.8472 31.4541L20.5182 32.1955ZM18.6067 32.5833C19.0234 32.5833 19.3839 32.5843 19.674 32.5469C19.9783 32.5077 20.2705 32.4196 20.5182 32.1955L19.8472 31.4541C19.8091 31.4885 19.7435 31.5297 19.5462 31.5551C19.3348 31.5824 19.0502 31.5833 18.6067 31.5833V32.5833ZM16.3933 32.5833H18.6067V31.5833H16.3933V32.5833ZM14.4818 32.1955C14.7295 32.4196 15.0217 32.5077 15.326 32.5469C15.6161 32.5843 15.9766 32.5833 16.3933 32.5833V31.5833C15.9498 31.5833 15.6652 31.5824 15.4538 31.5551C15.2565 31.5297 15.1909 31.4885 15.1528 31.4541L14.4818 32.1955ZM13.9057 30.3321C13.9472 30.7468 13.9821 31.1056 14.0482 31.3905C14.1175 31.6894 14.2342 31.9714 14.4818 32.1955L15.1528 31.4541C15.1148 31.4196 15.0672 31.3584 15.0223 31.1646C14.9742 30.957 14.9449 30.6739 14.9008 30.2326L13.9057 30.3321ZM13.8493 29.7677L13.9057 30.3321L14.9008 30.2326L14.8443 29.6682L13.8493 29.7677ZM13.3576 27.5006C13.4089 27.5218 13.5105 27.5817 13.609 27.9736C13.7078 28.3661 13.7659 28.934 13.8493 29.7677L14.8443 29.6682C14.7643 28.8683 14.6999 28.2111 14.5788 27.7296C14.4575 27.2474 14.2418 26.7845 13.7403 26.5767L13.3576 27.5006ZM11.4069 28.756C12.0553 28.2255 12.498 27.865 12.8454 27.6573C13.1922 27.4499 13.3063 27.4794 13.3576 27.5006L13.7403 26.5767C13.2387 26.369 12.7589 26.5438 12.3322 26.799C11.9061 27.0538 11.3958 27.473 10.7736 27.982L11.4069 28.756ZM10.9678 29.1152L11.4069 28.756L10.7736 27.982L10.3346 28.3413L10.9678 29.1152ZM9.24283 30.0255C9.57642 30.0421 9.85835 29.9252 10.1187 29.7629C10.3669 29.6081 10.6453 29.3791 10.9678 29.1152L10.3346 28.3413C9.99137 28.6221 9.77044 28.8016 9.58957 28.9144C9.42082 29.0196 9.34389 29.0293 9.29264 29.0267L9.24283 30.0255ZM7.61697 28.9481C7.91164 29.2428 8.16586 29.4984 8.39745 29.6771C8.64034 29.8645 8.90924 30.0089 9.24283 30.0255L9.29265 29.0267C9.2414 29.0242 9.16582 29.0069 9.00837 28.8854C8.83962 28.7552 8.63765 28.5546 8.32407 28.241L7.61697 28.9481ZM6.05187 27.383L7.61697 28.9481L8.32407 28.241L6.75898 26.6759L6.05187 27.383ZM4.97447 25.7571C4.99111 26.0907 5.13546 26.3596 5.32289 26.6025C5.5016 26.8341 5.7572 27.0883 6.05187 27.383L6.75898 26.6759C6.4454 26.3623 6.2448 26.1603 6.11458 25.9916C5.99309 25.8341 5.97578 25.7586 5.97323 25.7073L4.97447 25.7571ZM5.88474 24.0321C5.62085 24.3547 5.39182 24.6331 5.23705 24.8813C5.07472 25.1416 4.95783 25.4235 4.97447 25.7571L5.97323 25.7073C5.97067 25.6561 5.98037 25.5791 6.0856 25.4104C6.19838 25.2295 6.37788 25.0086 6.6587 24.6654L5.88474 24.0321ZM6.24392 23.5931L5.88474 24.0321L6.6587 24.6654L7.01788 24.2264L6.24392 23.5931ZM7.49934 21.6424C7.52057 21.6936 7.55004 21.8078 7.34267 22.1546C7.13493 22.502 6.77447 22.9447 6.24392 23.5931L7.01788 24.2264C7.52691 23.6042 7.94613 23.0939 8.20093 22.6678C8.4561 22.2411 8.63097 21.7613 8.42322 21.2597L7.49934 21.6424ZM5.23224 21.1507C6.06591 21.2341 6.63381 21.2922 7.02636 21.391C7.4182 21.4895 7.47811 21.5911 7.49934 21.6424L8.42322 21.2597C8.21547 20.7582 7.75251 20.5425 7.27033 20.4212C6.78886 20.3001 6.13161 20.2357 5.33174 20.1557L5.23224 21.1507ZM4.66791 21.0943L5.23224 21.1507L5.33174 20.1557L4.76741 20.0993L4.66791 21.0943ZM4.71764 21.0968H4.71766V20.0968H4.71764V21.0968ZM2.80449 20.5182C3.02861 20.7658 3.31061 20.8825 3.60948 20.9518C3.89444 21.0179 4.25323 21.0528 4.66789 21.0943L4.7674 20.0993C4.32614 20.0551 4.04299 20.0258 3.83536 19.9777C3.64162 19.9328 3.58038 19.8852 3.54595 19.8472L2.80449 20.5182ZM2.41667 18.6067C2.41667 19.0234 2.4157 19.3839 2.45309 19.674C2.49231 19.9783 2.58038 20.2705 2.80449 20.5182L3.54595 19.8472C3.51152 19.8091 3.47031 19.7435 3.44489 19.5462C3.41764 19.3348 3.41667 19.0502 3.41667 18.6067H2.41667ZM2.41667 16.3933V18.6067H3.41667V16.3933H2.41667ZM2.80449 14.4818C2.58038 14.7295 2.49231 15.0217 2.45309 15.326C2.4157 15.6161 2.41667 15.9766 2.41667 16.3933H3.41667C3.41667 15.9498 3.41764 15.6652 3.44489 15.4538C3.47031 15.2565 3.51152 15.1909 3.54595 15.1528L2.80449 14.4818ZM4.66791 13.9057C4.25325 13.9472 3.89445 13.9821 3.60948 14.0482C3.31062 14.1175 3.02861 14.2342 2.80449 14.4818L3.54595 15.1528C3.58038 15.1148 3.64163 15.0672 3.83536 15.0223C4.043 14.9742 4.32615 14.9449 4.76742 14.9008L4.66791 13.9057ZM5.23279 13.8492L4.66791 13.9057L4.76742 14.9008L5.33229 14.8443L5.23279 13.8492ZM7.49989 13.3576C7.47866 13.4088 7.41874 13.5104 7.02691 13.609C6.63436 13.7077 6.06646 13.7659 5.23279 13.8492L5.33229 14.8443C6.13216 14.7643 6.78941 14.6999 7.27088 14.5788C7.75306 14.4575 8.21602 14.2418 8.42377 13.7402L7.49989 13.3576ZM6.24447 11.4068C6.77501 12.0553 7.13548 12.4979 7.34322 12.8453C7.55059 13.1921 7.52112 13.3063 7.49989 13.3576L8.42377 13.7402C8.63152 13.2387 8.45665 12.7588 8.20147 12.3321C7.94667 11.906 7.52746 11.3957 7.01842 10.7736L6.24447 11.4068ZM5.88481 10.9672L6.24447 11.4068L7.01842 10.7736L6.65877 10.334L5.88481 10.9672ZM4.97453 9.24224C4.9579 9.57582 5.07478 9.85776 5.23711 10.1181C5.39189 10.3663 5.62092 10.6447 5.88481 10.9672L6.65877 10.334C6.37794 9.99077 6.19844 9.76984 6.08566 9.58898C5.98043 9.42022 5.97074 9.3433 5.97329 9.29205L4.97453 9.24224ZM6.05194 7.61637C5.75726 7.91105 5.50167 8.16527 5.32296 8.39686C5.13553 8.63974 4.99117 8.90865 4.97453 9.24224L5.97329 9.29205C5.97585 9.2408 5.99315 9.16523 6.11465 9.00778C6.24487 8.83903 6.44546 8.63706 6.75904 8.32348L6.05194 7.61637ZM7.61703 6.05128L6.05194 7.61637L6.75904 8.32348L8.32414 6.75838L7.61703 6.05128ZM9.2429 4.97388C8.90931 4.99051 8.6404 5.13487 8.39752 5.3223C8.16593 5.50101 7.91171 5.7566 7.61703 6.05128L8.32414 6.75838C8.63772 6.4448 8.83969 6.24421 9.00844 6.11399C9.16588 5.99249 9.24146 5.97519 9.29271 5.97263L9.2429 4.97388ZM10.9679 5.88415C10.6454 5.62026 10.367 5.39123 10.1187 5.23645C9.85842 5.07412 9.57648 4.95724 9.2429 4.97388L9.29271 5.97263C9.34396 5.97008 9.42088 5.97977 9.58964 6.085C9.7705 6.19778 9.99143 6.37729 10.3347 6.65811L10.9679 5.88415ZM11.4069 6.24336L10.9679 5.88415L10.3347 6.65811L10.7737 7.01732L11.4069 6.24336ZM13.3577 7.49878C13.3064 7.52001 13.1922 7.54948 12.8454 7.34211C12.498 7.13437 12.0554 6.7739 11.4069 6.24336L10.7737 7.01732C11.3958 7.52635 11.9061 7.94556 12.3322 8.20037C12.7589 8.45554 13.2388 8.63041 13.7404 8.42266L13.3577 7.49878ZM13.8493 5.23168C13.766 6.06535 13.7078 6.63325 13.6091 7.0258C13.5105 7.41763 13.4089 7.47755 13.3577 7.49878L13.7404 8.42266C14.2419 8.21491 14.4576 7.75195 14.5789 7.26977C14.7 6.7883 14.7644 6.13105 14.8444 5.33118L13.8493 5.23168ZM13.9057 4.66791L13.8493 5.23168L14.8444 5.33118L14.9008 4.76741L13.9057 4.66791ZM14.4818 2.80449C14.2342 3.02861 14.1175 3.31062 14.0482 3.60948C13.9821 3.89445 13.9472 4.25325 13.9057 4.66791L14.9008 4.76741C14.9449 4.32615 14.9742 4.043 15.0223 3.83536C15.0672 3.64163 15.1148 3.58038 15.1528 3.54595L14.4818 2.80449ZM16.3933 2.41667C15.9766 2.41667 15.6161 2.4157 15.326 2.45309C15.0217 2.49231 14.7295 2.58038 14.4818 2.80449L15.1528 3.54595C15.1909 3.51152 15.2565 3.47031 15.4538 3.44489C15.6652 3.41764 15.9498 3.41667 16.3933 3.41667V2.41667ZM18.6067 2.41667H16.3933V3.41667H18.6067V2.41667ZM20.5182 2.80449C20.2705 2.58038 19.9783 2.49231 19.674 2.45309C19.3839 2.4157 19.0234 2.41667 18.6067 2.41667V3.41667C19.0502 3.41667 19.3348 3.41764 19.5462 3.44489C19.7435 3.47031 19.8091 3.51152 19.8472 3.54595L20.5182 2.80449ZM21.0943 4.66789C21.0528 4.25323 21.0179 3.89444 20.9518 3.60948C20.8825 3.31061 20.7658 3.02861 20.5182 2.80449L19.8472 3.54595C19.8852 3.58038 19.9328 3.64162 19.9777 3.83536C20.0258 4.04299 20.0551 4.32614 20.0993 4.7674L21.0943 4.66789ZM22.8333 17.5C22.8333 20.4455 20.4455 22.8333 17.5 22.8333V23.8333C20.9978 23.8333 23.8333 20.9978 23.8333 17.5H22.8333ZM17.5 12.1667C20.4455 12.1667 22.8333 14.5545 22.8333 17.5H23.8333C23.8333 14.0022 20.9978 11.1667 17.5 11.1667V12.1667ZM12.1667 17.5C12.1667 14.5545 14.5545 12.1667 17.5 12.1667V11.1667C14.0022 11.1667 11.1667 14.0022 11.1667 17.5H12.1667ZM17.5 22.8333C14.5545 22.8333 12.1667 20.4455 12.1667 17.5H11.1667C11.1667 20.9978 14.0022 23.8333 17.5 23.8333V22.8333Z"/>
</g></svg>
