<svg width="55" height="55" viewBox="0 0 55 55" fill="none" xmlns="http://www.w3.org/2000/svg">
<rect width="55" height="55" rx="27.5" fill="#55ACE3"/>
<path d="M42.075 20.4875C41.1125 20.9 40.0125 21.175 38.9125 21.3125C40.0125 20.625 40.975 19.525 41.3875 18.2875C40.2875 18.975 39.1875 19.3875 37.8125 19.6625C36.85 18.5625 35.3375 17.875 33.825 17.875C30.8 17.875 28.325 20.35 28.325 23.375C28.325 23.7875 28.325 24.2 28.4625 24.6125C23.925 24.3375 19.8 22.1375 17.05 18.8375C16.6375 19.6625 16.3625 20.625 16.3625 21.5875C16.3625 23.5125 17.325 25.1625 18.8375 26.125C17.875 26.125 17.05 25.85 16.3625 25.4375C16.3625 28.05 18.2875 30.3875 20.7625 30.8C20.35 30.9375 19.8 30.9375 19.25 30.9375C18.8375 30.9375 18.5625 30.9375 18.15 30.8C18.8375 33 20.9 34.65 23.375 34.65C21.45 36.1625 19.1125 36.9875 16.5 36.9875C16.0875 36.9875 15.675 36.9875 15.125 36.85C17.6 38.3625 20.4875 39.325 23.65 39.325C33.825 39.325 39.325 30.9375 39.325 23.65V22.9625C40.425 22.55 41.3875 21.5875 42.075 20.4875Z" fill="white"/>
</svg>
