<svg width="35" height="35" viewBox="0 0 35 35" fill="none" xmlns="http://www.w3.org/2000/svg">
<g fill="current">
<path fill-rule="evenodd" clip-rule="evenodd" d="M12.3356 11.3287C7.68596 11.3287 3.91666 15.098 3.91666 19.7477C3.91666 24.3974 7.68596 28.1667 12.3356 28.1667C12.5498 28.1667 12.7619 28.1587 12.9716 28.1431C13.0774 28.1352 13.1804 28.1438 13.2782 28.1667H25C26.6569 28.1667 28 26.8235 28 25.1667V21.5741C28 19.9172 26.6569 18.5741 25 18.5741C24.9466 18.5741 24.8941 18.5741 24.8425 18.5741C24.0042 18.5745 23.402 18.5748 22.9518 18.47C22.6142 18.3915 22.2928 18.3127 21.983 18.1503C21.6732 17.9878 21.4255 17.7683 21.169 17.5353C20.95 17.3365 20.7011 17.0076 20.4329 16.6361C20.1454 16.2379 19.7663 15.6896 19.2733 14.9766L19.2659 14.9659C17.745 12.7663 15.2081 11.3287 12.3356 11.3287ZM1.91666 19.7477C1.91666 13.9934 6.5814 9.3287 12.3356 9.3287C15.8924 9.3287 19.0325 11.1119 20.9109 13.8284C21.4129 14.5544 21.7804 15.0858 22.0545 15.4655C22.1913 15.6551 22.2978 15.797 22.3811 15.901C22.4224 15.9526 22.4546 15.9907 22.479 16.018C22.5044 16.0464 22.5152 16.0562 22.5135 16.0547C22.7844 16.3007 22.8583 16.351 22.9117 16.379C22.9651 16.407 23.0484 16.4391 23.4049 16.5221C23.5977 16.5669 23.9394 16.5741 25 16.5741C27.7614 16.5741 30 18.8126 30 21.5741V25.1667C30 27.9281 27.7614 30.1667 25 30.1667H13.0734C13.0139 30.1667 12.9556 30.1615 12.8989 30.1517C12.7123 30.1616 12.5245 30.1667 12.3356 30.1667C6.5814 30.1667 1.91666 25.5019 1.91666 19.7477Z" />
<path fill-rule="evenodd" clip-rule="evenodd" d="M28.3265 6.09898C27.8798 5.99044 27.4162 5.97094 26.962 6.04159C26.5079 6.11224 26.0721 6.27165 25.6795 6.51072C25.287 6.74979 24.9453 7.06384 24.6741 7.43494C24.4029 7.80603 24.2075 8.22691 24.099 8.67354C23.9904 9.12017 23.9709 9.5838 24.0416 10.038C24.1122 10.4921 24.2716 10.9279 24.5107 11.3205C24.7498 11.7131 25.0638 12.0547 25.4349 12.3259C25.806 12.5971 26.2269 12.7925 26.6735 12.901C27.1202 13.0096 27.5838 13.0291 28.038 12.9584C28.4921 12.8878 28.9279 12.7284 29.3205 12.4893C29.713 12.2502 30.0547 11.9362 30.3259 11.5651C30.5971 11.194 30.7925 10.7731 30.901 10.3265C31.0096 9.87983 31.0291 9.4162 30.9584 8.96203C30.8878 8.50787 30.7284 8.07207 30.4893 7.67951C30.2502 7.28695 29.9362 6.94532 29.5651 6.67414C29.194 6.40295 28.7731 6.20751 28.3265 6.09898ZM26.6546 4.06536C27.3683 3.95434 28.0969 3.98498 28.7987 4.15553C29.5006 4.32608 30.1619 4.6332 30.7451 5.05936C31.3283 5.48551 31.8218 6.02235 32.1974 6.63923C32.5731 7.2561 32.8236 7.94094 32.9346 8.65462C33.0457 9.36831 33.015 10.0969 32.8445 10.7987C32.6739 11.5006 32.3668 12.1619 31.9406 12.7451C31.5145 13.3283 30.9776 13.8218 30.3608 14.1974C29.7439 14.5731 29.0591 14.8236 28.3454 14.9346C27.6317 15.0457 26.9031 15.015 26.2013 14.8445C25.4994 14.6739 24.8381 14.3668 24.2549 13.9406C23.6717 13.5145 23.1782 12.9777 22.8026 12.3608C22.4269 11.7439 22.1764 11.0591 22.0654 10.3454C21.9543 9.63169 21.985 8.90312 22.1555 8.20128C22.3261 7.49943 22.6332 6.83805 23.0594 6.2549C23.4855 5.67174 24.0224 5.17824 24.6392 4.80256C25.2561 4.42687 25.9409 4.17637 26.6546 4.06536Z" />
</g></svg>
