<svg width="55" height="55" viewBox="0 0 55 55" fill="none" xmlns="http://www.w3.org/2000/svg">
<path d="M55 27.5C55 12.3122 42.6878 0 27.5 0V0C12.3122 0 0 12.3122 0 27.5V27.5C0 42.6878 12.3122 55 27.5 55V55C42.6878 55 55 42.6878 55 27.5V27.5Z" fill="#4C9AE8"/>
<path d="M18.135 33L19.17 31.965V27.75L18.135 26.7H11.85V24.6H17.085V25.65H19.17V23.565L18.135 22.5H10.785L9.75 23.565V28.065L10.785 28.815H17.085V30.9H11.85V29.865H9.75V31.965L10.785 33H18.135ZM22.7631 33V22.5H20.6631V33H22.7631ZM29.5916 33V24.6H33.2366V22.5H23.8166V24.6H27.4916V33H29.5916ZM43.1961 33V30.9H36.3861V28.815H42.6711V26.715H36.3861V24.6H43.1961V22.5H34.2861V33H43.1961Z" fill="white"/>
</svg>
