<svg width="55" height="55" viewBox="0 0 55 55" fill="none" xmlns="http://www.w3.org/2000/svg">
<rect width="55" height="55" rx="27.5" fill="#F40000"/>
<path fill-rule="evenodd" clip-rule="evenodd" d="M15.4859 37.2031C14.9466 37.0435 14.4544 36.7597 14.0511 36.3754C13.6477 35.9912 13.3449 35.5179 13.1683 34.9954C12.159 32.2951 11.86 21.0195 13.8038 18.7936C14.4507 18.0695 15.3641 17.6237 16.3457 17.5529C21.5603 17.0056 37.6715 17.0785 39.5219 17.7354C40.0423 17.9002 40.5178 18.1779 40.9127 18.5475C41.3076 18.9172 41.6117 19.3694 41.8021 19.8701C42.9049 22.6616 42.9422 32.806 41.6526 35.4881C41.3105 36.1862 40.7378 36.7517 40.0265 37.0936C38.0827 38.0424 18.0652 38.0242 15.4859 37.2031V37.2031ZM23.7658 31.912L33.1111 27.1682L23.7658 22.3879V31.912Z" fill="white"/>
</svg>
